<?xml version="1.0" encoding="utf-8"?>
<!-- Generator: Adobe Illustrator 18.0.0, SVG Export Plug-In . SVG Version: 6.00 Build 0)  -->
<!DOCTYPE svg PUBLIC "-//W3C//DTD SVG 1.1//EN" "http://www.w3.org/Graphics/SVG/1.1/DTD/svg11.dtd">
<svg version="1.1" xmlns="http://www.w3.org/2000/svg" xmlns:xlink="http://www.w3.org/1999/xlink" x="0px" y="0px"
	 viewBox="0 0 320 108" enable-background="new 0 0 320 108" xml:space="preserve">
<g id="R">
</g>
<g id="umblr">
</g>
<g id="Layer_8" display="none">
</g>
<g id="fist_white">
</g>
<g id="fist_shading">
</g>
<g id="Layer_9">
</g>
<g id="bandaid">
</g>
<g id="fist_icon">
</g>
<g id="bandaids_icon">
	<circle fill="#EF4642" cx="160" cy="54" r="46.8"/>
	<path fill="#FFFFFF" d="M134.9,84.1l-4.6-4.6c-3.2-3.2-3.2-8.3,0-11.4l41.9-41.9c3.2-3.2,8.3-3.2,11.4,0l4.6,4.6
		c3.2,3.2,3.2,8.3,0,11.4l-41.9,41.9C143.2,87.2,138,87.2,134.9,84.1z"/>
	<path fill="#FFFFFF" d="M189,78.4l-4.6,4.6c-3.2,3.2-8.3,3.2-11.5,0L131,41.1c-3.2-3.2-3.2-8.3,0-11.5l4.6-4.6
		c3.2-3.2,8.3-3.2,11.5,0L189,66.9C192.1,70.1,192.1,75.2,189,78.4z"/>
	<polyline fill="#C6BDBD" points="160,70.4 143.9,54 160.2,38.1 176.1,54 	"/>
</g>
<g id="chevron_icon">
</g>
<g id="chat_icon">
</g>
<g id="Layer_13">
</g>
<g id="Layer_14">
</g>
</svg>
