<?xml version="1.0" encoding="utf-8"?>
<!-- Generator: Adobe Illustrator 18.0.0, SVG Export Plug-In . SVG Version: 6.00 Build 0)  -->
<!DOCTYPE svg PUBLIC "-//W3C//DTD SVG 1.1//EN" "http://www.w3.org/Graphics/SVG/1.1/DTD/svg11.dtd">
<svg version="1.1" xmlns="http://www.w3.org/2000/svg" xmlns:xlink="http://www.w3.org/1999/xlink" x="0px" y="0px"
	 viewBox="0 0 36 36" enable-background="new 0 0 36 36" xml:space="preserve">
<g id="Layer_3">
</g>
<g id="Layer_1">
	<circle fill="#EF4642" cx="18" cy="18.7" r="16.7"/>
	<path fill="#FFFFFF" d="M9.9,30.3l-3.4-3.4c-0.6-0.6-0.6-1.7,0-2.3L23.2,7.9c0.6-0.6,1.7-0.6,2.3,0l3.4,3.4c0.6,0.6,0.6,1.7,0,2.3
		L12.3,30.3C11.6,30.9,10.6,30.9,9.9,30.3z"/>
	<path fill="#FFFFFF" d="M29.2,26.5l-3.4,3.4c-0.6,0.6-1.7,0.6-2.3,0L6.8,13.2c-0.6-0.6-0.6-1.7,0-2.3l3.4-3.4
		c0.6-0.6,1.7-0.6,2.3,0l16.7,16.7C29.9,24.8,29.9,25.9,29.2,26.5z"/>
</g>
<g id="Layer_2">
	<polyline fill="#C6BDBD" points="18,24.5 12.3,18.7 18.1,13 23.7,18.7 	"/>
</g>
</svg>
