<?xml version="1.0" encoding="utf-8"?>
<!-- Generator: Adobe Illustrator 18.0.0, SVG Export Plug-In . SVG Version: 6.00 Build 0)  -->
<!DOCTYPE svg PUBLIC "-//W3C//DTD SVG 1.1//EN" "http://www.w3.org/Graphics/SVG/1.1/DTD/svg11.dtd">
<svg version="1.1" xmlns="http://www.w3.org/2000/svg" xmlns:xlink="http://www.w3.org/1999/xlink" x="0px" y="0px"
	 viewBox="0 0 320 108" enable-background="new 0 0 320 108" xml:space="preserve">
<g id="R">
</g>
<g id="umblr">
</g>
<g id="Layer_8" display="none">
</g>
<g id="fist_white">
</g>
<g id="fist_shading">
</g>
<g id="Layer_9">
</g>
<g id="bandaid">
</g>
<g id="fist_icon">
</g>
<g id="bandaids_icon">
</g>
<g id="chevron_icon">
</g>
<g id="chat_icon">
	<path fill="#EF4642" d="M200.6,82.6h-81.2c-4.9,0-8.8-3.9-8.8-8.8V25.8c0-4.9,3.9-8.8,8.8-8.8h81.2c4.9,0,8.8,3.9,8.8,8.8v48.1
		C209.4,78.7,205.5,82.6,200.6,82.6z"/>
	<path fill="#EF4642" d="M195.1,79.2l-6,10.4c-1.1,1.9-3.9,1.9-5,0l-6-10.4c-1.1-1.9,0.3-4.4,2.5-4.4l12,0
		C194.9,74.9,196.3,77.3,195.1,79.2z"/>
	<ellipse fill="#FFFFFF" cx="193.1" cy="24.2" rx="6.5" ry="3.4"/>
	<circle fill="#FFFFFF" cx="202.3" cy="27.6" r="2.1"/>
</g>
<g id="Layer_13">
</g>
<g id="Layer_14">
</g>
</svg>
