<?xml version="1.0" encoding="utf-8"?>
<!-- Generator: Adobe Illustrator 18.0.0, SVG Export Plug-In . SVG Version: 6.00 Build 0)  -->
<!DOCTYPE svg PUBLIC "-//W3C//DTD SVG 1.1//EN" "http://www.w3.org/Graphics/SVG/1.1/DTD/svg11.dtd">
<svg version="1.1" xmlns="http://www.w3.org/2000/svg" xmlns:xlink="http://www.w3.org/1999/xlink" x="0px" y="0px"
	 viewBox="0 0 36 36" enable-background="new 0 0 36 36" xml:space="preserve">
<g id="background">
</g>
<g id="Layer_3">
	<rect fill="#FFFFFF" width="36" height="36"/>
</g>
<g id="Layer_5">
	<circle fill="#EF4642" cx="17.9" cy="18.9" r="16.7"/>
</g>
<g id="Layer_1">
	<path fill="#FFFFFF" d="M28.1,23.5c0-0.1,0.1-0.2,0.1-0.3l1.2-6.5c0-0.1,0-0.3,0-0.4C29.2,17,27.8,21.6,28.1,23.5z"/>
	<path fill="#FFFFFF" d="M25.8,33.6l-2-4.3c-0.3-0.5-0.1-1.2,0.3-1.6l3.8-3.7c0.1-0.1,0.2-0.3,0.3-0.5c-0.3-2,1.1-6.5,1.3-7.2
		c0-0.3-0.2-0.6-0.4-0.8l-1.7-1.8c-0.3-0.3-0.6-0.4-1-0.4c-0.6,0-1.1-0.3-1.3-0.9l-1.3-3c-0.2-0.5-0.7-0.9-1.3-0.9h-5.7
		c-0.3,0-0.5,0.1-0.7,0.2l-8.7,5.4c-0.6,0.4-0.8,1.2-0.5,1.8l1.5,3.2c0.1,0.1,0.1,0.2,0.1,0.4L11,34.1c2.1,0.9,4.4,1.5,6.9,1.5
		C20.7,35.6,23.4,34.8,25.8,33.6z"/>
	<path fill="#C6BCBC" d="M24.9,31.7l1.3-6l2-1.9c0,0,0,0,0,0c0.3-1.6,1.3-6.9,1.3-6.9C28.1,24.2,22.4,27,20,30.1
		c-0.2,0.3,0,2.5,0.5,5.3c1.9-0.3,3.6-0.9,5.2-1.8L24.9,31.7z"/>
	<path fill="#C6BCBC" d="M17.6,14.6l-0.1-0.9l-0.9,2.1c0,0.1-0.1,0.2-0.2,0.3L15.3,17c-0.3,0.2-0.3,0.6-0.1,0.9l0.5,0.6
		c0.2,0.3,0.7,0.3,1,0l4-4.1l-2.2,0.7C18.1,15.3,17.7,15,17.6,14.6z"/>
	<path fill="#C6BCBC" d="M11,34.1c0.3,0.1,0.5,0.2,0.8,0.3L8.3,19.2L11,34.1z"/>
	<path fill="#C6BCBC" d="M19.6,21.9l3.6-2.7c0.7-0.5,1.1-1.4,1.1-2.3v-2.5l-1.5,4.1L19.6,21.9z"/>
	<path fill="#C6BCBC" d="M29.5,16.2"/>
	<path fill="#C6BCBC" d="M29.5,16.2"/>
</g>
</svg>
