<?xml version="1.0" encoding="utf-8"?>
<!-- Generator: Adobe Illustrator 18.0.0, SVG Export Plug-In . SVG Version: 6.00 Build 0)  -->
<!DOCTYPE svg PUBLIC "-//W3C//DTD SVG 1.1//EN" "http://www.w3.org/Graphics/SVG/1.1/DTD/svg11.dtd">
<svg version="1.1" xmlns="http://www.w3.org/2000/svg" xmlns:xlink="http://www.w3.org/1999/xlink" x="0px" y="0px"
	 viewBox="0 0 320 108" enable-background="new 0 0 320 108" xml:space="preserve">
<g id="R">
</g>
<g id="umblr">
</g>
<g id="Layer_8" display="none">
</g>
<g id="fist_white">
</g>
<g id="fist_shading">
</g>
<g id="Layer_9">
</g>
<g id="bandaid">
</g>
<g id="fist_icon">
	<circle fill="#EF4642" cx="158.1" cy="55.2" r="46.9"/>
	<path fill="#FFFFFF" d="M186.9,68.3c0.1-0.3,0.2-0.5,0.3-0.8l3.5-18.3c0.1-0.4,0.1-0.8,0-1.2C190.1,49.9,186,62.8,186.9,68.3z"/>
	<path fill="#FFFFFF" d="M180.3,96.6l-5.6-12c-0.7-1.5-0.4-3.3,0.8-4.5l10.6-10.4c0.4-0.4,0.6-0.8,0.8-1.3
		c-0.9-5.5,3.1-18.4,3.8-20.3c-0.1-0.8-0.4-1.7-1-2.3l-4.9-5.1c-0.8-0.8-1.8-1.2-2.9-1.2c-1.6,0-3-0.9-3.7-2.4l-3.7-8.6
		c-0.6-1.5-2.1-2.4-3.7-2.4h-16c-0.7,0-1.5,0.2-2.1,0.6l-24.3,15.2c-1.7,1.1-2.3,3.2-1.5,5.1l4.2,8.9c0.1,0.3,0.3,0.6,0.3,1
		l7.4,41.2c5.9,2.7,12.4,4.2,19.3,4.2C166.1,102.2,173.7,100.1,180.3,96.6z"/>
	<path fill="#C6BCBC" d="M177.8,91.2l3.7-17l5.5-5.4c0,0,0,0,0,0c0.8-4.5,3.7-19.5,3.7-19.5c-3.8,21-19.9,28.9-26.5,37.6
		c-0.7,0.9,0.1,7.1,1.4,14.8c5.2-0.8,10.2-2.5,14.7-4.9L177.8,91.2z"/>
	<path fill="#C6BCBC" d="M157.4,43.3l-0.2-2.4l-2.6,5.9c-0.1,0.3-0.3,0.5-0.6,0.7l-3.2,2.5c-0.8,0.6-1,1.8-0.3,2.6l1.4,1.7
		c0.7,0.8,2,0.9,2.7,0.1l11.2-11.5l-6,2C158.7,45.2,157.5,44.5,157.4,43.3z"/>
	<path fill="#C6BCBC" d="M138.8,98c0.7,0.3,1.5,0.7,2.3,0.9l-9.8-42.7L138.8,98z"/>
	<path fill="#C6BCBC" d="M162.9,63.7l10-7.5c2-1.5,3.2-3.9,3.2-6.4v-6.9L172,54.2L162.9,63.7z"/>
	<path fill="#C6BCBC" d="M190.8,47.7"/>
	<path fill="#C6BCBC" d="M190.8,47.7"/>
</g>
<g id="bandaids_icon">
</g>
<g id="chevron_icon">
</g>
<g id="chat_icon">
</g>
<g id="Layer_13">
</g>
<g id="Layer_14">
</g>
</svg>
