<?xml version="1.0" encoding="utf-8"?>
<!-- Generator: Adobe Illustrator 18.0.0, SVG Export Plug-In . SVG Version: 6.00 Build 0)  -->
<!DOCTYPE svg PUBLIC "-//W3C//DTD SVG 1.1//EN" "http://www.w3.org/Graphics/SVG/1.1/DTD/svg11.dtd">
<svg version="1.1" xmlns="http://www.w3.org/2000/svg" xmlns:xlink="http://www.w3.org/1999/xlink" x="0px" y="0px"
	 viewBox="0 0 243.7 75.3" enable-background="new 0 0 243.7 75.3" xml:space="preserve">
<g id="background">
	<rect y="0" fill="#FFFFFF" width="243.7" height="75.3"/>
</g>
<g id="umblr">
	<path fill="#EF4642" d="M21.7,61.8"/>
	<path fill="#EF4642" d="M17.5,64.2"/>
	<path fill="#EF4642" d="M13.6,64.2"/>
	<path fill="#EF4642" d="M13.6,7.7"/>
	<text transform="matrix(1 0 0 1 65.748 64.1968)" fill="#EF4642" font-family="'ErasITC-Bold'" font-size="55.3417">umblr</text>
</g>
<g id="R">
	<path fill="#EF4642" d="M64,64.2L53.7,46.1C67,29.4,56.8,7.7,44.8,7.7H17c0,0,0.8,30.3-1.3,56.5H64z"/>
</g>
<g id="Layer_8" display="none">
	<rect x="112.6" y="36.4" display="inline" fill="#EF4743" width="29.7" height="29.7"/>
	<rect x="151.6" y="36.4" display="inline" fill="#EF4743" width="29.7" height="29.7"/>
	<polyline display="inline" fill="#EF4642" points="121.5,67.6 121.5,64.6 134,64.6 134,67.6 	"/>
	<rect x="191.7" y="6.9" display="inline" fill="#EF4642" width="6.7" height="59.2"/>
	<rect x="151.6" y="6.9" display="inline" fill="#EF4642" width="7.6" height="59.2"/>
	<rect x="191.7" y="6.9" display="inline" fill="#EF4642" width="7.6" height="59.2"/>
	<rect x="71.5" y="36.5" display="inline" fill="#EF4642" width="7.6" height="29.5"/>
	<rect x="93.4" y="36.5" display="inline" fill="#EF4642" width="7.6" height="29.5"/>
	<rect x="210.5" y="36.5" display="inline" fill="#EF4642" width="7.6" height="29.5"/>
	<rect x="71.5" y="58.4" display="inline" fill="#EF4642" width="29.5" height="7.6"/>
	<rect x="210.5" y="36.4" display="inline" fill="#EF4642" width="29.5" height="7.6"/>
	<polyline display="inline" fill="#FFFFFF" points="132.4,55.8 134,55.8 134,72.5 	"/>
	<polyline display="inline" fill="#FFFFFF" points="121.1,72.5 121.1,55.8 123.1,55.8 123.1,72.5 	"/>
</g>
<g id="fist_white">
	<path fill="#FFFFFF" d="M47.4,35.8c0-0.1,0.1-0.2,0.1-0.3l1.5-7.8c0-0.2,0-0.3,0-0.5C48.7,28,47,33.4,47.4,35.8z"/>
	<path fill="#FFFFFF" d="M52,63.6l-9.8-20.9c-0.3-0.6-0.2-1.4,0.3-1.9l4.5-4.4c0.2-0.2,0.3-0.3,0.4-0.6C47,33.4,48.7,28,49,27.1
		c0-0.4-0.2-0.7-0.4-1L46.5,24c-0.3-0.3-0.8-0.5-1.2-0.5c-0.7,0-1.3-0.4-1.5-1l-1.6-3.6c-0.3-0.6-0.9-1-1.5-1h-6.8
		c-0.3,0-0.6,0.1-0.9,0.3l-10.3,6.5c-0.7,0.5-1,1.4-0.6,2.1l1.8,3.8c0.1,0.1,0.1,0.3,0.1,0.4l6,33.7c0.1,0.8,0.8,1.4,1.7,1.4h18.9
		C51.7,66,52.5,64.7,52,63.6z"/>
</g>
<g id="fist_shading">
	<path fill="#C6BCBC" d="M47.4,35.9C47.4,35.9,47.4,35.9,47.4,35.9c0.4-1.9,1.6-8.3,1.6-8.3c-1.6,8.9-8.4,12.2-11.2,15.9
		c-0.8,1,3.2,19.8,3.4,20.5c0,0,0,0,0,0.1h11.1l-8.7-18.8l1.6-7.2"/>
	<path fill="#C6BCBC" d="M34.8,24.1l-1.1,2.5c-0.1,0.1-0.1,0.2-0.2,0.3L32.1,28c-0.3,0.3-0.4,0.8-0.1,1.1l0.6,0.7
		c0.3,0.4,0.8,0.4,1.2,0l4.7-4.9l-2.6,0.9c-0.5,0.2-1-0.2-1-0.7L34.8,24.1z"/>
	<polygon fill="#C6BCBC" points="23.8,30.6 29.8,64.2 31.5,64.2 	"/>
	<path fill="#C6BCBC" d="M42.8,25v2.9c0,1.1-0.5,2.1-1.3,2.7l-4.2,3.2l3.8-4L42.8,25z"/>
	<path fill="#C6BCBC" d="M49,27"/>
	<path fill="#C6BCBC" d="M49,27"/>
</g>
<g id="Layer_9">
	<rect x="164.6" y="41.9" fill="#EF4642" width="14.8" height="15.6"/>
</g>
<g id="bandaid">
	<path fill="#FFFFFF" d="M168.4,56.1l-1.2-1.2c-0.6-0.6-0.6-1.7,0-2.3l9.3-9.3c0.6-0.6,1.7-0.6,2.3,0l1.2,1.2c0.6,0.6,0.6,1.7,0,2.3
		l-9.3,9.3C170.1,56.8,169,56.8,168.4,56.1z"/>
	<path fill="#FFFFFF" d="M180.2,54.7l-1.2,1.2c-0.6,0.6-1.7,0.6-2.3,0l-9.3-9.3c-0.6-0.6-0.6-1.7,0-2.3l1.2-1.2
		c0.6-0.6,1.7-0.6,2.3,0l9.3,9.3C180.9,53,180.9,54.1,180.2,54.7z"/>
	<polyline fill="#C6BDBD" points="173.8,53 170.3,49.5 173.8,46 177.3,49.5 	"/>
</g>
<g id="Layer_11">
</g>
<g id="Layer_10">
</g>
</svg>
